# xmcd CD database file
#
# Track frame offsets:
#	150
#	14452
#	32589
#	46879
#	63333
#	80704
#	94962
#	109724
#	124681
#	140978
#	154762
#	169372
#
# Disc length: 2537 seconds
#
# Revision: 0
# Processed by: cddbd v1.5.2PL0 Copyright (c) Steve Scherf et al.
# Submitted via: CDex 1.51
#
DISCID=a409e70c
DTITLE=Bixbym Jaydee - Cowboys and Cadillacs
DYEAR=2008
DGENRE=Country
TTITLE0=Old Fashioned Girl
TTITLE1=Cowboys and Cadillacs
TTITLE2=Love Is
TTITLE3=Broken WIndows
TTITLE4=Boys in the Bnd
TTITLE5=Run Away
TTITLE6=My So Called Life
TTITLE7=Somewhere Tonight
TTITLE8=Slow Me Down
TTITLE9=Hard to Love You
TTITLE10=I am Ready Whenever You Are
TTITLE11=Break it to Them Gently
EXTD=YEAR: 2008
EXTT0=
EXTT1=
EXTT2=
EXTT3=
EXTT4=
EXTT5=
EXTT6=
EXTT7=
EXTT8=
EXTT9=
EXTT10=
EXTT11=
PLAYORDER=
